<?xml version="1.0" encoding="utf-8"?>
<!-- Generator: Adobe Illustrator 20.1.0, SVG Export Plug-In . SVG Version: 6.00 Build 0)  -->
<svg version="1.1" id="Isolation_Mode" xmlns="http://www.w3.org/2000/svg" xmlns:xlink="http://www.w3.org/1999/xlink" x="0px"
	 y="0px" width="169.5px" height="169.3px" viewBox="0 0 169.5 169.3" style="enable-background:new 0 0 169.5 169.3;"
	 xml:space="preserve">
<style type="text/css">
	.st0{fill:#FFFFFF;}
</style>
<path class="st0" d="M143.7,23.8C127.8,8.5,106.9,0,84.8,0h0C61.6,0,40,9.1,23.9,25.7C8.1,42-0.3,63.4,0,86
	c0.4,22.6,9.5,43.7,25.8,59.4c15.9,15.4,36.8,23.8,58.9,23.8l0,0l0.1,0c23.1,0,44.7-9.2,60.9-25.7c15.8-16.2,24.2-37.6,23.9-60.2
	C169.1,60.7,160,39.6,143.7,23.8z M17,40.2c2.8-4.2,6-8.2,9.5-11.9c7.8-8,16.9-14.2,27.1-18.5c4.3-1.8,8.7-3.2,13.1-4.2l3.7-0.8
	l-2.8,2.5c-4.8,4.4-9.1,10.4-12.8,18.1c-3,6.1-5.4,13-7.3,20.5l-0.2,0.8l-0.9-0.1c-14.2-1.5-23.5-3.6-28.9-5.1l-1.3-0.4L17,40.2z
	 M3.8,81.7c0.5-12.9,3.9-25.2,10.1-36.4l0.4-0.7l0.8,0.2c4.5,1.3,14.3,3.8,30.4,5.5l1.1,0.1l-0.2,1.1c-2,9.6-3.1,19.8-3.3,30.2l0,1
	h-1H4.8h-1L3.8,81.7z M14.2,124.6l-0.4-0.7c-6.2-11.2-9.6-23.4-10.1-36.4l0-1h1H42h1l0,1c0.2,10.5,1.3,20.6,3.3,30.2l0.2,1.1
	l-1.1,0.1c-16.1,1.7-25.9,4.2-30.4,5.5L14.2,124.6z M66.8,163.6c-14.4-3.3-27.7-10.4-38.4-20.8c-4.3-4.1-8.1-8.7-11.4-13.7l-0.8-1.1
	l1.3-0.4c5.4-1.5,14.8-3.6,29-5.1l0.9-0.1l0.2,0.8c2.1,8.4,4.9,15.9,8.3,22.4c3.5,6.8,7.5,12.2,11.8,16.2l2.8,2.5L66.8,163.6z
	 M82.9,121.7v42.6v1.2l-1.2-0.2c-3.3-0.6-6.6-2.2-9.8-4.7c-4.7-3.7-9-9.3-12.7-16.6c-3.1-6.1-5.7-13.1-7.8-20.8l-0.3-1.1l1.2-0.1
	c9.2-0.8,19.2-1.2,29.6-1.3l1,0V121.7z M82.9,87.5v28.5v1l-1,0c-10.9,0.1-21.3,0.5-30.8,1.4l-0.9,0.1l-0.2-0.9
	c-2-9.4-3.1-19.5-3.3-30l0-1h1h34.2h1V87.5z M82.9,53.3v28.5v1h-1H47.7h-1l0-1c0.2-10.4,1.3-20.5,3.3-30l0.2-0.9l0.9,0.1
	c9.5,0.8,19.9,1.3,30.8,1.4l1,0V53.3z M82.9,5v42.6v1l-1,0c-10.4-0.1-20.4-0.5-29.6-1.3l-1.2-0.1l0.3-1.1c1.8-6.9,4.1-13.3,6.9-19
	C64.7,13.8,73,5.6,81.7,4l1.2-0.2V5z M155.2,44.6l0.4,0.7c6.2,11.2,9.6,23.4,10.1,36.4l0,1h-1h-37.2h-1l0-1
	c-0.2-10.5-1.3-20.6-3.3-30.2l-0.2-1.1l1.1-0.1c16-1.7,25.9-4.2,30.4-5.5L155.2,44.6z M102.7,5.7c14.4,3.3,27.7,10.4,38.4,20.8
	c4.3,4.1,8.1,8.7,11.4,13.7l0.8,1.1l-1.3,0.4c-5.4,1.5-14.8,3.6-29,5.1l-0.9,0.1l-0.2-0.8c-2.1-8.4-4.9-15.9-8.3-22.4
	c-3.5-6.8-7.5-12.2-11.8-16.2L99,4.9L102.7,5.7z M86.6,47.6V5V3.8L87.8,4c3.3,0.6,6.6,2.2,9.8,4.7c4.7,3.7,9,9.3,12.7,16.6
	c3.1,6.1,5.7,13.1,7.8,20.8l0.3,1.1l-1.2,0.1c-9.2,0.8-19.2,1.2-29.6,1.3l-1,0V47.6z M86.6,81.8V53.3v-1l1,0
	c10.9-0.1,21.3-0.5,30.8-1.4l0.9-0.1l0.2,0.9c2,9.4,3.1,19.5,3.3,30l0,1h-1H87.6h-1V81.8z M86.6,115.9V87.5v-1h1h34.2h1l0,1
	c-0.2,10.4-1.3,20.5-3.3,30l-0.2,0.9l-0.9-0.1c-9.5-0.8-19.9-1.3-30.8-1.4l-1,0V115.9z M86.6,165.5v-1.2v-42.6v-1l1,0
	c10.5,0.1,20.4,0.5,29.6,1.3l1.2,0.1l-0.3,1.1c-1.8,6.9-4.1,13.3-6.9,19c-6.4,13.3-14.8,21.5-23.4,23.1L86.6,165.5z M152.5,129.1
	c-2.8,4.2-6,8.2-9.5,11.9c-7.8,8-16.9,14.2-27.1,18.5c-4.2,1.8-8.7,3.2-13.1,4.2l-3.7,0.8l2.8-2.6c4.8-4.4,9.1-10.4,12.8-18.1
	c3-6.1,5.4-13,7.3-20.5l0.2-0.8l0.9,0.1c14.2,1.5,23.5,3.6,28.9,5.1l1.3,0.4L152.5,129.1z M155.6,123.9l-0.4,0.7l-0.8-0.2
	c-4.5-1.3-14.3-3.8-30.4-5.5l-1.1-0.1l0.2-1.1c2-9.6,3.1-19.8,3.3-30.2l0-1h1h37.2h1l0,1C165.3,100.5,161.9,112.7,155.6,123.9z"/>
</svg>
