<?xml version="1.0" encoding="utf-8"?>
<!-- Generator: Adobe Illustrator 20.1.0, SVG Export Plug-In . SVG Version: 6.00 Build 0)  -->
<svg version="1.1" id="Layer_1" xmlns="http://www.w3.org/2000/svg" xmlns:xlink="http://www.w3.org/1999/xlink" x="0px" y="0px"
	 width="23.4px" height="26.9px" viewBox="0 0 23.4 26.9" style="enable-background:new 0 0 23.4 26.9;" xml:space="preserve">
<style type="text/css">
	.st0{fill:none;stroke:#FFFFFF;stroke-width:0.75;stroke-linecap:round;stroke-linejoin:round;stroke-miterlimit:10;}
</style>
<path class="st0" d="M18.6,13.2c0,0,2.1-1.1,2.3-2.9s-1.4-3.4-1.4-3.4S17.4,8,17.2,9.8S18.6,13.2,18.6,13.2z"/>
<g>
	<g>
		<path class="st0" d="M0.4,13.4C4.9,5.6,13.3,0.4,23,0.4"/>
		<path class="st0" d="M3.8,15.2c4-6.4,11-10.7,19-11.1"/>
		<polyline class="st0" points="0.4,13.4 23,26.5 23,0.4 		"/>
	</g>
</g>
<path class="st0" d="M14.5,21.6c0.8-1.5,2.6-2.2,4.2-1.7c0.3,0.1,0.5,0.5,0.3,0.8l-0.5,0.8c-0.2,0.3-0.1,0.6,0.2,0.8l1.5,0.8
	c0.7,0.3-0.2,1.2-0.3,1.5"/>
<path class="st0" d="M12.8,20.5c1.8-0.9,2.9-3,2.5-5.1c-0.5-2.6-3-4.3-5.5-3.8c-2.4,0.4-4,2.6-3.9,5"/>
</svg>
