<?xml version="1.0" encoding="utf-8"?>
<!-- Generator: Adobe Illustrator 20.1.0, SVG Export Plug-In . SVG Version: 6.00 Build 0)  -->
<svg version="1.1" id="Isolation_Mode" xmlns="http://www.w3.org/2000/svg" xmlns:xlink="http://www.w3.org/1999/xlink" x="0px"
	 y="0px" width="136.7px" height="81.3px" viewBox="0 0 136.7 81.3" style="enable-background:new 0 0 136.7 81.3;"
	 xml:space="preserve">
<style type="text/css">
	.st0{fill:none;}
	.st1{fill:#FFF12D;}
	.st2{fill:#CC2128;}
	.st3{fill:#E6E6E7;}
</style>
<g>
	<g>
		<g>
			<path class="st0" d="M119.1,40.6c-1.9,12.9-13.8,23.5-26.8,23.5c-12.9,0-21.9-10.4-20.1-23.4C74.1,27.8,86.1,17.3,99,17.2
				C111.9,17.2,120.9,27.7,119.1,40.6z"/>
		</g>
		<g>
			<path class="st0" d="M89.2,62.4c-10.4-1.5-17.1-10.8-15.6-21.5C75.4,28.7,86.8,18.7,99,18.6c1.1,0,2.1,0.1,3.1,0.2
				c10.4,1.5,17.1,10.8,15.6,21.5c-1.8,12.2-13.1,22.2-25.4,22.3C91.2,62.7,90.2,62.6,89.2,62.4z"/>
		</g>
	</g>
	<g>
		<g>
			<path class="st1" d="M101.3,1.4l-1.8,12.4c14.8,0,25.1,12,23,26.8c-2.1,14.8-15.9,26.8-30.7,26.9L90,79.9
				c21.7,0,41.8-17.7,44.9-39.3C138,18.9,122.9,1.4,101.3,1.4z"/>
		</g>
		<g>
			<path class="st2" d="M90.6,66.1l1.2,0c14.1,0,27.2-11.5,29.3-25.7c1.8-12.5-6-23.2-18-24.9c-1.2-0.2-2.4-0.3-3.6-0.2l-1.6,0
				L100,0l1.2,0c1.9,0,3.9,0.1,5.8,0.4c19.6,2.8,32.2,20.2,29.3,40.4c-3.2,22.3-23.9,40.5-46.3,40.5l-1.6,0L90.6,66.1z"/>
		</g>
	</g>
	<path class="st3" d="M93.4,66L93.4,66l0.4-3.4l-2.8,0L90.6,66c-0.8,0-1.6-0.1-2.4-0.2c-2.7-0.4-5.2-1.2-7.4-2.4l2.1-2.9l-2.2-1.4
		L78.6,62c-2.7-1.9-4.8-4.4-6.3-7.4l3.1-1.7l-1.1-2.4l-3.1,1.7c-1.1-3.1-1.6-6.5-1.2-10.1l3.3,0l0.4-2.8l-3.3,0
		c0.7-3.6,2.2-7,4.2-10.1l2.7,1.7l1.7-2.4l-2.7-1.7c2.3-2.9,5.2-5.4,8.3-7.3l1.2,2.9l2.6-1.4l-1.3-2.9c3.3-1.6,6.8-2.6,10.5-2.8
		l-0.5,3.3l2.8,0l0.5-3.4l0,0L102.9,0l-1.6,0C78.9,0,58.2,18.2,55,40.5c-2.9,20.2,9.7,37.6,29.3,40.4c1.9,0.3,3.8,0.4,5.8,0.4l1.2,0
		L93.4,66z"/>
	<path class="st3" d="M99.5,40.6c0.3-2.1-1.2-3.9-3.3-3.9c-2.2,0-4.1,1.8-4.5,3.9c-0.2,1.2,0.2,2.2,0.9,2.9l-0.2,18.9l5.3-18.9
		C98.7,42.9,99.4,41.8,99.5,40.6z"/>
</g>
<path class="st3" d="M37.3,33.7l22-32.3L13.8,1.5L8.7,16.6l24.2-0.1L12.7,46l13.2,0c0.6,0,1.2,0,1.8,0.1c6.9,1,6.5,7.6,6.2,9.6
	c-0.9,6.4-4.5,9.6-10.7,9.6c-0.5,0-1,0-1.4-0.1c-3.6-0.5-7-3.1-6.3-7.8l0.2-1.6l-15.3,0l-0.2,1.2c-1.7,12.1,5.4,21.7,17.4,23.4
	c0,0,0,0,0,0c1.2,0.2,2.5,0.3,3.8,0.3c15.4,0,25.8-9.1,28-24.1C51.1,45,46.7,36.7,37.3,33.7z"/>
</svg>
